# xmcd
#
# Track frame offsets: 
#        225
#        14549
#        29931
#        47536
#        64876
#        78473
#        97420
#        113085
#        129554
#        148628
#        167577
#        188672
#
# Disc length: 2789 seconds
#
# Revision: 0
# Processed by: cddbd v1.5.1PL2 Copyright (c) Steve Scherf et al.
# Submitted via: ExactAudioCopy v0.95b3
#
DISCID=ac0ae20c
DTITLE=Jim Wilson - Border Bravo
DYEAR=2002
DGENRE=Country
TTITLE0=Mountain Home
TTITLE1=Seven Days From Musquiz
TTITLE2=The Pistol
TTITLE3=Come to the Bower
TTITLE4=Agua Verde Crossing
TTITLE5=Heartaches come Stealing
TTITLE6=Across the Great Divide
TTITLE7=Blue Mountains of Mexico
TTITLE8=The Road To Sonora
TTITLE9=Borderline
TTITLE10=Evangelina
TTITLE11=Old Borunda Cafe
EXTD=
EXTT0=
EXTT1=
EXTT2=
EXTT3=
EXTT4=
EXTT5=
EXTT6=
EXTT7=
EXTT8=
EXTT9=
EXTT10=
EXTT11=
PLAYORDER=
